<svg width="32" height="32" viewBox="0 0 32 32" fill="none" xmlns="http://www.w3.org/2000/svg">
<path d="M24.4466 14.0828C24.0017 14.5374 23.6608 15.086 23.4486 15.6896C23.2363 16.2932 23.1578 16.9369 23.2184 17.5749L23.1973 17.5534C23.2597 18.3043 23.16 19.06 22.9051 19.7677C22.6502 20.4755 22.2463 21.1182 21.7215 21.6511C21.1968 22.184 20.5637 22.5942 19.8667 22.853C19.1697 23.1118 18.4254 23.213 17.6859 23.1497L17.707 23.1711C16.8224 23.0875 15.9339 23.2829 15.1627 23.7308C14.3915 24.1787 13.7751 24.8573 13.3976 25.6739C13.02 26.4905 12.8997 27.4056 13.0531 28.2941C13.2065 29.1827 13.6261 30.0016 14.2545 30.6393C14.8831 31.2768 15.69 31.7021 16.5652 31.857C17.4405 32.012 18.3415 31.8889 19.1454 31.5049C19.9493 31.1209 20.6169 30.4943 21.0574 29.7109C21.4978 28.9273 21.6895 28.025 21.6063 27.1269L21.6287 27.1483C21.5662 26.3974 21.666 25.6417 21.9208 24.9339C22.1757 24.2262 22.5797 23.5834 23.1045 23.0506C23.6293 22.5177 24.2622 22.1076 24.9593 21.8488C25.6563 21.5899 26.4006 21.4887 27.1401 21.5521L27.1178 21.5306C27.8404 21.5966 28.5677 21.4763 29.2324 21.1808C29.897 20.8854 30.4775 20.4244 30.9199 19.8405C31.3623 19.2567 31.6525 18.5689 31.7634 17.8408C31.8744 17.1128 31.8025 16.368 31.5545 15.6757C31.3066 14.9833 30.8905 14.3657 30.3448 13.8802C29.7992 13.3946 29.1417 13.0568 28.4332 12.8979C27.7248 12.739 26.9882 12.7643 26.2919 12.9715C25.5956 13.1786 24.9621 13.5609 24.4501 14.0828H24.4466Z" fill="#282938"/>
<path d="M15.7846 20.3597L15.7623 20.3383C16.3909 20.4026 17.0257 20.3243 17.6207 20.1089C18.2158 19.8937 18.7564 19.5468 19.2032 19.0933C19.6501 18.6399 19.9922 18.0913 20.2046 17.4873C20.4171 16.8832 20.4948 16.2387 20.4319 15.6004L20.4542 15.6219C20.3918 14.871 20.4915 14.1152 20.7464 13.4076C21.0013 12.6998 21.4052 12.0571 21.93 11.5242C22.4548 10.9913 23.0878 10.5811 23.7848 10.3223C24.4818 10.0635 25.2261 9.96219 25.9657 10.0256L25.9433 10.0042C26.828 10.0885 27.7168 9.89367 28.4885 9.44633C29.2601 8.99892 29.877 8.32072 30.2551 7.5042C30.6332 6.6877 30.754 5.77264 30.6012 4.88383C30.4483 3.99502 30.029 3.17575 29.4007 2.53775C28.7724 1.89975 27.9656 1.4741 27.0902 1.31883C26.2149 1.16357 25.3137 1.28626 24.5096 1.67018C23.7054 2.0541 23.0375 2.68054 22.5969 3.46407C22.1563 4.2476 21.9645 5.15007 22.0475 6.04838L22.0264 6.02573C22.089 6.77669 21.9895 7.53249 21.7346 8.24033C21.4798 8.94818 21.0758 9.59099 20.551 10.1239C20.0262 10.6569 19.3931 11.067 18.696 11.3258C17.9989 11.5845 17.2545 11.6856 16.515 11.622L16.5361 11.6446C15.9075 11.5804 15.2727 11.6587 14.6777 11.874C14.0826 12.0892 13.542 12.4362 13.0952 12.8896C12.6484 13.343 12.3062 13.8916 12.0938 14.4956C11.8813 15.0998 11.8036 15.7442 11.8665 16.3825L11.8454 16.3611C11.9076 17.1119 11.8077 17.8675 11.5527 18.5752C11.2978 19.2828 10.8939 19.9255 10.3691 20.4583C9.84436 20.9912 9.21145 21.4013 8.51453 21.6602C7.8176 21.9191 7.07344 22.0205 6.33395 21.9573L6.35509 21.9788C5.47039 21.8944 4.58161 22.0892 3.80995 22.5366C3.0383 22.984 2.42135 23.6622 2.04326 24.4787C1.66516 25.2953 1.54433 26.2103 1.69724 27.0991C1.85014 27.9879 2.26935 28.8072 2.89767 29.4452C3.526 30.0832 4.33286 30.5088 5.20819 30.6641C6.08352 30.8193 6.98471 30.6967 7.78885 30.3128C8.59298 29.9289 9.2609 29.3024 9.70148 28.5189C10.1421 27.7354 10.3339 26.8329 10.2509 25.9345L10.2732 25.956C10.2108 25.2051 10.3105 24.4493 10.5654 23.7417C10.8203 23.0339 11.2243 22.3912 11.749 21.8583C12.2738 21.3254 12.9068 20.9152 13.6038 20.6564C14.3008 20.3976 15.0451 20.2964 15.7846 20.3597Z" fill="#282938"/>
<path d="M7.91448 17.9671C8.35952 17.5126 8.70023 16.964 8.91234 16.3603C9.12443 15.7567 9.20267 15.113 9.14147 14.4751L9.16378 14.4965C9.1013 13.7454 9.20106 12.9895 9.45606 12.2816C9.71113 11.5736 10.1153 10.9308 10.6403 10.3978C11.1654 9.86489 11.7987 9.45482 12.496 9.19616C13.1934 8.93749 13.9378 8.83653 14.6775 8.90028L14.6552 8.87882C15.5396 8.96294 16.4281 8.76804 17.1993 8.32068C17.9707 7.87331 18.5873 7.19526 18.9652 6.37901C19.343 5.56276 19.4637 4.64803 19.3108 3.75955C19.1579 2.87108 18.7388 2.05212 18.1108 1.41435C17.4827 0.77659 16.6761 0.351065 15.8011 0.195809C14.9261 0.040555 14.0253 0.163128 13.2214 0.546811C12.4175 0.930495 11.7497 1.55661 11.3091 2.33978C10.8685 3.12294 10.6766 4.02504 10.7594 4.92305L10.7383 4.90159C10.8007 5.65251 10.701 6.40821 10.4461 7.11596C10.1912 7.82371 9.78731 8.46644 9.26249 8.99931C8.73769 9.53219 8.1047 9.94235 7.40768 10.2012C6.71066 10.46 5.96641 10.5613 5.22688 10.4978L5.24801 10.5193C4.52541 10.4535 3.79814 10.574 3.1336 10.8696C2.46905 11.1651 1.88874 11.6262 1.44643 12.2102C1.00411 12.7941 0.714118 13.4819 0.603308 14.2099C0.492498 14.938 0.564459 15.6827 0.812526 16.3749C1.06059 17.0672 1.47674 17.6847 2.0224 18.1701C2.56806 18.6557 3.22557 18.9935 3.93403 19.1522C4.64248 19.311 5.37893 19.2856 6.07516 19.0784C6.77138 18.8713 7.40484 18.489 7.91684 17.9671H7.91448Z" fill="#282938"/>
</svg>
