<svg width="36" height="32" viewBox="0 0 36 32" fill="none" xmlns="http://www.w3.org/2000/svg">
<path d="M0.873186 14.0697C1.82939 10.2293 4.04394 6.81882 7.1642 4.3815C10.2844 1.94419 14.1311 0.620117 18.0915 0.620117C22.052 0.620117 25.8985 1.94419 29.0188 4.3815C32.1391 6.81882 34.3537 10.2293 35.3099 14.0697H33.7546C31.1309 14.0311 28.561 14.8147 26.4058 16.3104C26.2814 16.4004 26.1516 16.4825 26.017 16.5564H25.8356C25.701 16.4825 25.5711 16.4004 25.4467 16.3104C23.2725 14.8493 20.7117 14.069 18.0915 14.069C15.4713 14.069 12.9106 14.8493 10.7363 16.3104C10.6119 16.4004 10.4821 16.4825 10.3475 16.5564H10.166C10.0315 16.4825 9.9016 16.4004 9.77722 16.3104C7.62202 14.8147 5.05215 14.0311 2.42847 14.0697H0.873186ZM30.955 22.1903C31.7534 21.569 32.743 21.2439 33.7546 21.2708H35.8413V17.1133H33.7546C31.9727 17.0918 30.2317 17.646 28.7906 18.6934C27.9796 19.2909 26.9986 19.6132 25.9911 19.6132C24.9836 19.6132 24.0026 19.2909 23.1916 18.6934C21.7139 17.6656 19.9567 17.1146 18.1563 17.1146C16.356 17.1146 14.5987 17.6656 13.1211 18.6934C12.3101 19.2909 11.329 19.6132 10.3216 19.6132C9.31405 19.6132 8.333 19.2909 7.52205 18.6934C6.06319 17.6326 4.29715 17.0777 2.49328 17.1133H0.341797V21.2708H2.42847C3.44007 21.2439 4.4296 21.569 5.22799 22.1903C6.70293 23.2188 8.45819 23.7703 10.2568 23.7703C12.0553 23.7703 13.8106 23.2188 15.2856 22.1903C16.085 21.5708 17.0737 21.2461 18.0851 21.2708C19.0969 21.2418 20.0872 21.567 20.8846 22.1903C22.3622 23.2181 24.1194 23.7691 25.9198 23.7691C27.7202 23.7691 29.4774 23.2181 30.955 22.1903ZM30.955 29.6244C31.7534 29.0031 32.743 28.678 33.7546 28.7049H35.8413V24.5475H33.7546C31.9727 24.5259 30.2317 25.0801 28.7906 26.1275C27.9796 26.725 26.9986 27.0473 25.9911 27.0473C24.9836 27.0473 24.0026 26.725 23.1916 26.1275C21.7139 25.0996 19.9567 24.5487 18.1563 24.5487C16.356 24.5487 14.5987 25.0996 13.1211 26.1275C12.3101 26.725 11.329 27.0473 10.3216 27.0473C9.31405 27.0473 8.333 26.725 7.52205 26.1275C6.06319 25.0667 4.29715 24.5118 2.49328 24.5475H0.341797V28.7049H2.42847C3.44007 28.678 4.4296 29.0031 5.22799 29.6244C6.70293 30.653 8.45819 31.2044 10.2568 31.2044C12.0553 31.2044 13.8106 30.653 15.2856 29.6244C16.085 29.005 17.0737 28.6802 18.0851 28.7049C19.0969 28.6759 20.0872 29.0011 20.8846 29.6244C22.3622 30.6522 24.1194 31.2033 25.9198 31.2033C27.7202 31.2033 29.4774 30.6522 30.955 29.6244Z" fill="#282938"/>
</svg>
