<svg width="26" height="32" viewBox="0 0 26 32" fill="none" xmlns="http://www.w3.org/2000/svg">
<path d="M14.355 5.07804V0.618652H0.423828V31.2572H14.355V26.7978C11.5013 26.7978 8.7643 25.6537 6.74636 23.617C4.72841 21.5804 3.59474 18.8182 3.59474 15.9379C3.59474 13.0577 4.72841 10.2954 6.74636 8.25885C8.7643 6.2222 11.5013 5.07804 14.355 5.07804Z" fill="#282938"/>
<path d="M14.3535 5.07764V26.7974C17.2073 26.7974 19.9443 25.6533 21.9622 23.6166C23.9802 21.5801 25.1138 18.8178 25.1138 15.9375C25.1138 13.0573 23.9802 10.295 21.9622 8.25845C19.9443 6.2218 17.2073 5.07764 14.3535 5.07764Z" fill="#282938"/>
</svg>
