<svg width="32" height="32" viewBox="0 0 32 32" fill="none" xmlns="http://www.w3.org/2000/svg">
<path d="M29.8466 9.96624C29.273 8.65605 28.5139 7.435 27.5924 6.34062C26.2304 4.67455 24.5306 3.31555 22.6049 2.35308C20.6792 1.39061 18.5713 0.846471 16.42 0.756497C14.2686 0.666522 12.1227 1.03274 10.1232 1.83105C8.12375 2.62937 6.31619 3.84167 4.81949 5.38819C3.32278 6.93469 2.17089 8.78034 1.4396 10.8037C0.708309 12.827 0.414213 14.9821 0.576668 17.1271C0.739122 19.2721 1.35445 21.3585 2.38214 23.2488C3.40982 25.1392 4.82658 26.7907 6.53915 28.0946C7.63803 28.9479 8.85226 29.6417 10.1457 30.1551C11.9592 30.8976 13.9001 31.28 15.8599 31.2811C19.9053 31.2722 23.7822 29.6612 26.6406 26.8012C29.499 23.9413 31.1059 20.0657 31.1088 16.024C31.1119 13.9393 30.682 11.8766 29.8466 9.96624ZM15.8486 3.8522C17.6086 3.85201 19.3472 4.23631 20.9429 4.97818C20.5538 5.14614 20.1447 5.26345 19.7257 5.32724C18.3468 5.52664 17.0695 6.16618 16.0843 7.15039C15.0992 8.13461 14.4591 9.41069 14.2594 10.7883C14.1718 11.5608 13.8201 12.2795 13.2637 12.8231C12.7073 13.3667 11.9802 13.7019 11.2051 13.7721C9.82635 13.9715 8.54898 14.611 7.56384 15.5952C6.57869 16.5795 5.93854 17.8556 5.73895 19.2331C5.67137 19.9677 5.35766 20.658 4.84858 21.1923C3.97021 19.3382 3.57563 17.2921 3.70155 15.2446C3.82746 13.1971 4.46978 11.2147 5.56873 9.4818C6.66768 7.749 8.18754 6.32206 9.98684 5.33382C11.7862 4.34558 13.8065 3.82814 15.8599 3.82968L15.8486 3.8522ZM6.52789 23.906C6.66313 23.7821 6.79838 23.6694 6.93363 23.5343C7.93631 22.5631 8.57992 21.2811 8.75945 19.8974C8.83223 19.1197 9.17986 18.3932 9.74002 17.8481C10.279 17.2876 11.0045 16.9432 11.7799 16.8798C13.1588 16.6804 14.4361 16.0408 15.4212 15.0566C16.4064 14.0725 17.0465 12.7963 17.2461 11.4188C17.2949 10.6053 17.6444 9.83886 18.2266 9.2682C18.779 8.71853 19.5114 8.38664 20.2892 8.3336C21.5559 8.15949 22.7373 7.59689 23.6703 6.72345C24.7327 7.60405 25.6329 8.66341 26.3302 9.85371C26.2874 9.91149 26.2382 9.96437 26.1836 10.0113C25.6457 10.5768 24.9211 10.9287 24.1437 11.0022C22.7634 11.1981 21.4842 11.8366 20.4984 12.8214C19.5126 13.8062 18.8736 15.0843 18.6775 16.4632C18.5981 17.2383 18.2528 17.9622 17.7003 18.5122C17.1478 19.0622 16.4219 19.4044 15.6457 19.4808C14.2629 19.6787 12.9808 20.317 11.9899 21.3008C10.9991 22.2846 10.3523 23.5615 10.1457 24.9418C10.0851 25.4921 9.89589 26.0206 9.59347 26.4845C8.43711 25.7985 7.40144 24.9274 6.52789 23.906ZM15.8486 28.2522C14.7049 28.2534 13.5668 28.0942 12.4675 27.7793C12.8435 27.079 13.0879 26.3157 13.1887 25.5273C13.2678 24.7539 13.6113 24.0314 14.1616 23.4816C14.7118 22.9319 15.4351 22.5886 16.2093 22.5097C17.5901 22.3126 18.87 21.674 19.8574 20.6896C20.8447 19.7052 21.4865 18.4278 21.6867 17.0487C21.7657 16.2753 22.1093 15.5527 22.6596 15.003C23.2098 14.4533 23.933 14.11 24.7073 14.031C25.7464 13.896 26.7368 13.5095 27.5924 12.9051C28.0676 14.7043 28.1238 16.5884 27.757 18.4126C27.3901 20.237 26.6099 21.9531 25.476 23.4294C24.3422 24.9056 22.8849 26.1029 21.2161 26.9291C19.5472 27.7553 17.7111 28.1887 15.8486 28.1959V28.2522Z" fill="#282938"/>
</svg>
