<svg width="33" height="32" viewBox="0 0 33 32" fill="none" xmlns="http://www.w3.org/2000/svg">
<path d="M32.2361 10.8063C32.2361 8.68319 31.5958 6.60957 30.399 4.85701C29.2022 3.10445 27.5048 1.75469 25.5289 0.984508C23.553 0.214331 21.3909 0.059655 19.3258 0.540737C17.2606 1.02182 15.3888 2.11623 13.9552 3.68062H0.660156V31.778H28.7311V18.6467C29.8329 17.6599 30.7145 16.4517 31.3185 15.1007C31.9223 13.7497 32.235 12.2865 32.2361 10.8063ZM26.8349 10.8063C26.837 11.8236 26.5377 12.8188 25.9747 13.6658C25.4118 14.5127 24.6106 15.1733 23.6725 15.5641C22.7344 15.9549 21.7016 16.0583 20.7048 15.861C19.7081 15.6639 18.7922 15.1751 18.073 14.4564C17.3538 13.7378 16.8637 12.8216 16.6647 11.824C16.4658 10.8263 16.5668 9.79199 16.9551 8.85186C17.3435 7.91172 18.0016 7.10808 18.8463 6.54264C19.6909 5.97721 20.684 5.67539 21.7001 5.67538C23.0601 5.67538 24.3645 6.21562 25.3272 7.17754C26.2898 8.13947 26.8321 9.44453 26.8349 10.8063ZM23.33 26.3698H6.06129V9.08891H11.324C11.2223 9.65582 11.1688 10.2303 11.1641 10.8063C11.167 13.6034 12.2779 16.2852 14.2532 18.2631C16.2284 20.2409 18.9066 21.3533 21.7001 21.3562C22.2462 21.3532 22.7912 21.3069 23.33 21.2175V26.3698Z" fill="#282938"/>
</svg>
